HIERARCHY
ROOT Hips
{
	OFFSET -14.64140 90.27770 -84.91600
	CHANNELS 6 Xposition Yposition Zposition Zrotation Xrotation Yrotation
	JOINT Spine
	{
		OFFSET 0.00000 13.20850 -1.60436
		CHANNELS 3 Zrotation Xrotation Yrotation
		JOINT Spine1
		{
			OFFSET 0.00000 8.61716 0.00000
			CHANNELS 3 Zrotation Xrotation Yrotation
			JOINT Spine2
			{
				OFFSET 0.00000 8.61717 0.00000
				CHANNELS 3 Zrotation Xrotation Yrotation
				JOINT Spine3
				{
					OFFSET 0.00000 8.61717 0.00000
					CHANNELS 3 Zrotation Xrotation Yrotation
					JOINT Neck
					{
						OFFSET 0.00000 11.07920 1.10792
						CHANNELS 3 Zrotation Xrotation Yrotation
						JOINT Neck1
						{
							OFFSET 0.00000 7.08032 0.00000
							CHANNELS 3 Zrotation Xrotation Yrotation
							JOINT Head
							{
								OFFSET 0.00000 7.08031 0.00000
								CHANNELS 3 Zrotation Xrotation Yrotation
								End site
								{
									OFFSET 0.00000 0.00000 0.00000
								}
							}
						}
					}
					JOINT RightShoulder
					{
						OFFSET -0.01000 7.91373 5.19711
						CHANNELS 3 Zrotation Xrotation Yrotation
						JOINT RightArm
						{
							OFFSET -18.41580 0.00000 0.00000
							CHANNELS 3 Zrotation Xrotation Yrotation
							JOINT RightForeArm
							{
								OFFSET -29.11090 0.00000 0.00000
								CHANNELS 3 Zrotation Xrotation Yrotation
								JOINT RightHand
								{
									OFFSET -24.65040 0.00000 0.00000
									CHANNELS 3 Zrotation Xrotation Yrotation
									JOINT RightHandThumb1
									{
										OFFSET -5.35114 -0.85590 3.97906
										CHANNELS 3 Zrotation Xrotation Yrotation
										JOINT RightHandThumb2
										{
											OFFSET -4.52789 0.00000 0.00000
											CHANNELS 3 Zrotation Xrotation Yrotation
											JOINT RightHandThumb3
											{
												OFFSET -2.46976 0.00000 0.00000
												CHANNELS 3 Zrotation Xrotation Yrotation
												End site
												{
													OFFSET 0.00000 0.00000 0.00000
												}
											}
										}
									}
									JOINT RightHandIndex1
									{
										OFFSET -14.26970 0.00000 2.88139
										CHANNELS 3 Zrotation Xrotation Yrotation
										JOINT RightHandIndex2
										{
											OFFSET -5.48836 0.00000 0.00000
											CHANNELS 3 Zrotation Xrotation Yrotation
											JOINT RightHandIndex3
											{
												OFFSET -3.01859 0.00000 0.00000
												CHANNELS 3 Zrotation Xrotation Yrotation
												End site
												{
													OFFSET 0.00000 0.00000 0.00000
												}
											}
										}
									}
									JOINT RightHandMiddle1
									{
										OFFSET -14.26970 0.00000 -0.09147
										CHANNELS 3 Zrotation Xrotation Yrotation
										JOINT RightHandMiddle2
										{
											OFFSET -6.17441 0.00000 0.00000
											CHANNELS 3 Zrotation Xrotation Yrotation
											JOINT RightHandMiddle3
											{
												OFFSET -3.56743 0.00000 0.00000
												CHANNELS 3 Zrotation Xrotation Yrotation
												End site
												{
													OFFSET 0.00000 0.00000 0.00000
												}
											}
										}
									}
									JOINT RightHandRing1
									{
										OFFSET -12.69180 0.00000 -3.06433
										CHANNELS 3 Zrotation Xrotation Yrotation
										JOINT RightHandRing2
										{
											OFFSET -5.62556 0.00000 0.00000
											CHANNELS 3 Zrotation Xrotation Yrotation
											JOINT RightHandRing3
											{
												OFFSET -3.56744 0.00000 0.00000
												CHANNELS 3 Zrotation Xrotation Yrotation
												End site
												{
													OFFSET 0.00000 0.00000 0.00000
												}
											}
										}
									}
									JOINT RightHandPinky1
									{
										OFFSET -11.11390 0.00000 -6.03719
										CHANNELS 3 Zrotation Xrotation Yrotation
										JOINT RightHandPinky2
										{
											OFFSET -4.52789 0.00000 0.00000
											CHANNELS 3 Zrotation Xrotation Yrotation
											JOINT RightHandPinky3
											{
												OFFSET -2.46976 0.00000 0.00000
												CHANNELS 3 Zrotation Xrotation Yrotation
												End site
												{
													OFFSET 0.00000 0.00000 0.00000
												}
											}
										}
									}
								}
							}
						}
					}
					JOINT LeftShoulder
					{
						OFFSET 0.01000 7.91373 5.19711
						CHANNELS 3 Zrotation Xrotation Yrotation
						JOINT LeftArm
						{
							OFFSET 18.41580 0.00000 0.00000
							CHANNELS 3 Zrotation Xrotation Yrotation
							JOINT LeftForeArm
							{
								OFFSET 29.11090 0.00000 0.00000
								CHANNELS 3 Zrotation Xrotation Yrotation
								JOINT LeftHand
								{
									OFFSET 24.65040 0.00000 0.00000
									CHANNELS 3 Zrotation Xrotation Yrotation
									JOINT LeftHandThumb1
									{
										OFFSET 5.35114 -0.85590 3.97906
										CHANNELS 3 Zrotation Xrotation Yrotation
										JOINT LeftHandThumb2
										{
											OFFSET 4.52789 0.00000 0.00000
											CHANNELS 3 Zrotation Xrotation Yrotation
											JOINT LeftHandThumb3
											{
												OFFSET 2.46977 0.00000 0.00000
												CHANNELS 3 Zrotation Xrotation Yrotation
												End site
												{
													OFFSET 0.00000 0.00000 0.00000
												}
											}
										}
									}
									JOINT LeftHandIndex1
									{
										OFFSET 14.26970 0.00000 2.88139
										CHANNELS 3 Zrotation Xrotation Yrotation
										JOINT LeftHandIndex2
										{
											OFFSET 5.48836 0.00000 0.00000
											CHANNELS 3 Zrotation Xrotation Yrotation
											JOINT LeftHandIndex3
											{
												OFFSET 3.01859 0.00000 0.00000
												CHANNELS 3 Zrotation Xrotation Yrotation
												End site
												{
													OFFSET 0.00000 0.00000 0.00000
												}
											}
										}
									}
									JOINT LeftHandMiddle1
									{
										OFFSET 14.26970 0.00000 -0.09147
										CHANNELS 3 Zrotation Xrotation Yrotation
										JOINT LeftHandMiddle2
										{
											OFFSET 6.17440 0.00000 0.00000
											CHANNELS 3 Zrotation Xrotation Yrotation
											JOINT LeftHandMiddle3
											{
												OFFSET 3.56744 0.00000 0.00000
												CHANNELS 3 Zrotation Xrotation Yrotation
												End site
												{
													OFFSET 0.00000 0.00000 0.00000
												}
											}
										}
									}
									JOINT LeftHandRing1
									{
										OFFSET 12.69180 0.00000 -3.06433
										CHANNELS 3 Zrotation Xrotation Yrotation
										JOINT LeftHandRing2
										{
											OFFSET 5.62556 0.00000 0.00000
											CHANNELS 3 Zrotation Xrotation Yrotation
											JOINT LeftHandRing3
											{
												OFFSET 3.56744 0.00000 0.00000
												CHANNELS 3 Zrotation Xrotation Yrotation
												End site
												{
													OFFSET 0.00000 0.00000 0.00000
												}
											}
										}
									}
									JOINT LeftHandPinky1
									{
										OFFSET 11.11390 0.00000 -6.03719
										CHANNELS 3 Zrotation Xrotation Yrotation
										JOINT LeftHandPinky2
										{
											OFFSET 4.52789 0.00000 0.00000
											CHANNELS 3 Zrotation Xrotation Yrotation
											JOINT LeftHandPinky3
											{
												OFFSET 2.46976 0.00000 0.00000
												CHANNELS 3 Zrotation Xrotation Yrotation
												End site
												{
													OFFSET 0.00000 0.00000 0.00000
												}
											}
										}
									}
								}
							}
						}
					}
					JOINT pCube4
					{
						OFFSET 0.00000 10.91090 1.10792
						CHANNELS 3 Zrotation Xrotation Yrotation
						End site
						{
							OFFSET 0.00000 0.00000 0.00000
						}
					}
				}
			}
		}
	}
	JOINT RightUpLeg
	{
		OFFSET -9.98441 0.00000 0.00000
		CHANNELS 3 Zrotation Xrotation Yrotation
		JOINT RightLeg
		{
			OFFSET 0.00000 -42.11790 0.00000
			CHANNELS 3 Zrotation Xrotation Yrotation
			JOINT RightFoot
			{
				OFFSET 0.00000 -45.00020 -0.00001
				CHANNELS 3 Zrotation Xrotation Yrotation
				JOINT RightForeFoot
				{
					OFFSET 0.00000 -3.74820 0.00000
					CHANNELS 3 Zrotation Xrotation Yrotation
					JOINT RightToeBase
					{
						OFFSET 0.00000 0.06325 14.43120
						CHANNELS 3 Zrotation Xrotation Yrotation
						End site
						{
							OFFSET 0.00000 0.00000 0.00000
						}
					}
				}
			}
		}
	}
	JOINT LeftUpLeg
	{
		OFFSET 9.98441 0.00000 0.00000
		CHANNELS 3 Zrotation Xrotation Yrotation
		JOINT LeftLeg
		{
			OFFSET 0.00000 -42.11800 0.00000
			CHANNELS 3 Zrotation Xrotation Yrotation
			JOINT LeftFoot
			{
				OFFSET 0.00000 -45.00070 0.00000
				CHANNELS 3 Zrotation Xrotation Yrotation
				JOINT LeftForeFoot
				{
					OFFSET 0.00000 -3.74824 0.00000
					CHANNELS 3 Zrotation Xrotation Yrotation
					JOINT LeftToeBase
					{
						OFFSET 0.00000 0.06325 14.43110
						CHANNELS 3 Zrotation Xrotation Yrotation
						End site
						{
							OFFSET 0.00000 0.00000 0.00000
						}
					}
				}
			}
		}
	}
}
MOTION
Frames: 4
Frame Time: 0.050000
-0.02901838602471059 0.026976138631661147 0.003845827468263875 -0.04467187964575665 0.032274685071928044 0.040559252162489165 -2.86490037061606 -0.12208513027801474 -0.9438549935526225 -0.25402022321891166 3.848299680040759 0.2597189042323546 -0.6975054748950322 -2.031947110393018 -0.07378719209346152 -1.0790894322009101 -1.1776640546766437 -0.5999218743843354 -0.23591275595458733 13.084133095793499 -0.16618983817918004 0.973505096915584 -0.49324198987211915 -0.17289466461196762 1.1583923977387969 -15.25748577221088 -0.12845878364152064 -0.4610470510782789 0.5164002647110724 -13.158434582865251 63.1875689086051 -0.5886244360106215 23.66507697863718 34.05624171487996 7.678854493192102 98.28259571611376 27.50997657361976 0.024567930931348157 -7.617173495661436 4.480139952458401 -0.11905376880757866 -1.6402116395441462 0.019438315467443536 0.02366891753964906 -56.22445140087753 0.005048020821672801 0.0165234641900091 -56.25098962799135 -38.73438599772844 -0.01387934802155418 -0.0160947486550094 -0.030741339226051205 0.038775068400041406 -0.01647235174810181 0.02809255536838046 0.0021843443467064565 0.036629695103046034 -36.741528103088726 0.04163867794622982 0.010201183120880851 -0.04317870084779685 0.03923886134699141 -0.01135489142593086 -0.01080006924355625 -0.0005731486344438536 0.03060482539790607 -19.722808949544035 0.010777801133931371 0.00653253362385346 0.04890731335269884 -0.02056076391076031 -0.00658934186974659 -0.027468327030060965 -0.0036446386002545916 0.024133789649469637 24.06625409865636 0.04159006895411299 -0.0092398031882215 28.849606052650305 -0.041711000800154094 0.041852721267221366 28.859940974586657 0.035239767945964694 0.010569293140191355 4.627968069173507 1.3304348442379654 12.265704788110192 -68.00122389310442 25.220536953754365 -26.940920865299784 -24.520758043922356 3.4521236392739962 -97.45465221749465 -28.439471400298434 2.4708282573995617 -2.7576332530451473 -0.46145620496029416 0.06173332053574069 -8.136283546925663 -0.0021319132419017877 0.024421652088580735 44.57669492127778 0.016335772428979614 -0.00952415918774957 44.59125563468715 12.484984793857393 -0.0031163219813449797 -0.0022956593816227913 0.013552095197470575 -0.0037110771806572775 0.019341492959581007 -0.012931013383927234 0.031339025175089005 -0.03062183201948491 11.152459362806141 0.04379499972743964 0.025624309133822652 0.03235873264207186 0.03729792346584966 0.04361348339230513 0.008152116041561143 -0.0025349079946548167 0.01554196360261146 4.7352503384011095 0.009731342222415512 0.008808170104881805 -0.03515339817666284 -0.028923809212187457 -0.016900930740682964 0.0003679474729576741 0.04489319380629673 0.01441276931366524 -5.574467735235456 0.005704338735592567 -0.01007064017152811 -6.759163394503148 -0.04737621247502171 0.031832814817380296 -6.727577043161599 0.04743046665062904 -0.03321877488255388 0.03682710110816714 0.021730409864467944 -0.03600336566462109 8.092623418234076 3.5141804469147506 -19.235666482991505 -0.009822878123722211 10.374488520488647 0.04627694168639124 -5.63942971006406 -15.676669497462658 3.2171157072395653 0.03157797969436356 0.007367658089668086 0.020961838655886557 -0.01838209791093136 4.653606462324015 0.03335441838580495 12.426670039677221 -8.221237276728564 6.87107915737277 -0.015277347174522645 46.41712634101666 0.0507107860981965 -4.325418300334232 -14.758846579975451 -3.818762079425546 0.03241993435653088 -0.0076096910807683955 0.04741903910563255 -0.006675012756118218 -10.735297364815098 0.017517133172204134 
-0.04322961932473388 -0.036304923765762664 -0.026321333299129054 -0.04467433941781632 -0.02146763489600037 0.0393142944116249 -2.578314603817276 -0.1548232538079854 -1.0164751792283548 -0.2229071201000694 3.810511348670141 0.2318446259349129 -0.6747327489603547 -2.006328228687386 -0.11977434680659177 -1.044235116413685 -1.1582606794599413 -0.5776350453046288 -0.24254706281828192 13.116897793876934 -0.1461907348597249 1.0733089645588736 -0.4807193568194932 -0.023203836408602546 1.2261116687219142 -15.241381703218856 -0.06240925878012914 -0.5110738030241079 0.5975422914185817 -13.31554125516215 64.23697137948548 -0.7465581131601705 22.670333807204237 32.140476673702516 7.83851320133199 98.69756486803058 26.805783351371414 -0.05222664158455454 -7.170017153275288 4.552965835004137 -0.15432289597592244 -1.5914337670520615 -0.009465383588072657 -0.014212983331661799 -56.261053826615125 -0.012889393855081322 0.009498672763406497 -56.24112896517581 -38.79446159310907 -0.005882976907503621 0.04464716546793174 0.03287406695206003 -0.0023278526982997067 -0.008436086737569671 0.02409866016327475 -0.017187347244125115 -0.04409728503433223 -36.724489833179 -0.020226401507320507 -0.03923536185239349 -0.04379493932414147 -0.01984828713385818 3.12086402204339e-05 -0.031120775479726852 -0.04887701582882649 -0.012599455417483803 -19.767237454457202 0.03867811189475497 0.02330545244563042 -0.015541973193069858 0.002531310567898462 0.02725325501283703 -0.043081147978183 -0.029092608751094973 -0.024851051899946852 24.0940595835872 -0.02464827187049368 7.079396627983438e-05 28.863812561351853 0.02284606845887693 0.034381056949278274 28.879511349588437 0.028378738165554324 -0.04781971237800184 4.805005193327781 1.3266444964263795 12.319368912596957 -68.7246577713472 24.187514021133715 -27.05967484679073 -23.07207860994107 3.8163400439821693 -97.20885918339258 -27.73181249548571 3.4219643877633477 -3.4897057508558627 -0.48356070429990244 0.06045918641540332 -8.147742550473017 0.001876262212629303 0.03586633281924152 44.579111561646094 0.031693404042156405 -0.0009287421096615598 44.570244694656026 12.495325539800989 -0.021211714257635097 -0.021719434805063515 0.04331111616290045 0.01683922453304407 0.041840767201099645 0.024054305238804693 -0.005527244931350574 -0.008821118212990559 11.155347828837218 -0.0032715284576500833 -0.017116880263135598 0.03231504587866812 -0.03424903292798194 0.006249361674445888 0.023733281215166477 0.041465310848155454 0.010833347116012446 4.801104542871541 -0.044098938642076785 -0.032972983575553436 0.02233588157226502 0.0432181774573734 -0.028215419760499363 -0.023624848281238994 0.02435047679869731 -0.006533734121182322 -5.557671432244793 -0.03173375413490341 0.004856815515102157 -6.760656719724466 -0.0382852225521061 0.04154255961402798 -6.730383109686471 0.0038653809686616985 0.03316859392250333 -0.021163681980975478 -0.015456635042806487 -0.026747208123821545 8.025024446653944 3.4732886984146814 -19.23810010755666 0.012200444182321211 10.41749512932865 -0.0003480153987530134 -5.624492260198799 -15.697977908395597 3.1936867655915937 0.03167669607564279 -0.03553212615771289 -0.009787480173289936 0.009893284090450075 4.7398495528610765 0.016183766839946868 12.452283885957312 -8.267410292424032 6.903421343972118 0.013600803140624876 46.36499960246392 0.04625737845821148 -4.344027711883564 -14.70675423253128 -3.866782717954278 0.0069655957147190415 -0.011255435720326029 0.024625324654577747 -0.024935444758804173 -10.759580040576068 -0.03732721024117205 
0.014324017314182478 -0.02718996801940265 -0.02820833988189248 -0.04390598032741461 -0.003862257035184262 -0.03630923145634384 -2.29946019584879 -0.14300603541027804 -1.0701430460043664 -0.20290814249796862 3.7912381511685567 0.2056114713299025 -0.6521553725515421 -2.0782458336016747 -0.11425404399547896 -1.0259216393807766 -1.2252460195233086 -0.5163668614656056 -0.32906989410544585 13.139533013843309 -0.05219843897466735 1.0229428999353114 -0.3611056996489209 0.30733158747825745 1.167858907486874 -15.183519054679802 -0.06140937223993538 -0.6205884847209797 0.6179888567378845 -13.439872491160228 65.29757954270656 -0.3307772441112797 21.68520988674479 31.084828658979458 8.032137410461122 99.22574269232213 26.000323336371384 -0.12117431749794698 -6.707630759014588 4.556201907609751 -0.13280844356721178 -1.5461256602600855 0.017470901297390998 -0.021634527516903382 -56.238883047343506 -0.03377266231653967 -0.03025350832245824 -56.19938370292159 -38.801203165419665 0.029145610712409956 0.010480921697221927 0.031404645899220145 -0.01604968304723803 -0.005065867212579561 0.03819123234098094 0.018682854570192888 0.039892488213960034 -36.697207729312055 -0.005193227799440976 0.006582992236848849 0.011692720012197766 -0.01920596922490672 -0.00046668781788213173 -0.0012674007435877065 0.008409259362945122 0.005473883250620343 -19.74667828147347 0.007079658095491609 0.02417648107119167 -0.007678418601325987 -0.0236584769841483 0.0026455327784855906 -0.015596137376440552 0.04469378651591105 -0.02761973226300679 24.073513308969098 -0.035682982971386355 -0.02657207454273262 28.822162144192404 0.010345118581656739 -0.006710529887427308 28.90627365813007 0.04848555393641284 0.02968566512965691 5.127098319046481 1.4150830943524302 12.393920234960024 -69.64544908204134 22.834945703170593 -27.375525318277692 -23.514675802663863 4.521357618802975 -96.80772176770192 -26.884812273180135 4.276929745203886 -4.006922734053332 -0.49102977111794155 0.029025250457372656 -8.08196039359459 -0.04946199069393763 0.021784884908621866 44.57075860607236 -0.031046371692498 -0.009675372750006834 44.543209458745665 12.410289727915238 0.02684500677186936 0.01981096760281429 -0.018695650689315366 0.011263923617240166 0.02454971377791403 -0.021818302952952135 -0.039781902672021405 0.01772032188643254 11.122376831237135 -0.013117079084689237 -0.02148018517024152 -0.03225554812203763 0.013904397955610867 -0.047489646326876654 0.00800330110069836 0.04454437198251181 -0.02999964462792284 4.77297948365443 0.007488887606312704 0.023255686796124327 -0.029356491235959913 -0.025603866976734065 -0.0068343255284747184 -0.0013301248952271333 -0.0387662948021181 -0.002542218863043411 -5.63120224643313 0.04858761587944997 -0.002313304172171292 -6.6717515434574945 -0.007047190189990776 0.02919090709720373 -6.679318819097677 -0.010472655420001333 0.029762865250749296 -0.013549278977749095 0.018616333428801164 -0.037096884892566594 8.076824563330034 3.5122205131132374 -19.24555609553785 -0.02898947362051065 10.432206889116403 -0.03415001656466715 -5.6516328517207315 -15.664843320468572 3.2237841848068958 -0.009492251584088538 0.001787040225417651 -0.006035879319163485 0.041619363392337884 4.70969652417052 0.013052936713081333 12.474701902565757 -8.24064160267461 6.843615556692256 -0.021739029324090605 46.421767150506554 -0.02575991795603123 -4.319741034710841 -14.71791971572834 -3.8328667851090374 -0.012695670432583513 0.028363059765928456 0.005539510444350336 -0.011609680644971032 -10.746915536075825 -0.021445714711767688 
0.042510441807593294 -0.01773830835893673 0.04108542028144324 -0.002213649552915822 -0.0465349742967965 -0.009471368868196009 -1.8531155882612684 -0.2260976564050035 -1.0987581549899395 -0.18943458628420007 3.8143300465851735 0.20892763891782506 -0.6721353766211331 -2.0784050454072065 -0.1887646177428009 -0.9889050702342549 -1.2595995074109247 -0.5760973502464758 -0.36268147349876073 13.184700339843394 -0.005598045881582352 1.0825245176761646 -0.3437675887554743 0.5733401876334521 1.1671006424255914 -15.057854524815177 -0.04693929867878379 -0.7633023676869597 0.7042116384292066 -13.533350578902654 66.22149708191925 0.34763650502903015 21.08210805607345 30.355488271378185 8.183664611216136 99.56522939066102 25.257905289713904 -0.19082638217765358 -6.39713628082987 4.550528311198647 -0.14609785706515357 -1.6134573059461732 -0.012704869143930644 0.028588592326013615 -56.211215733802355 -0.021880372689073082 0.006348846596233857 -56.237495052795985 -38.790150671991285 -0.028703709914040167 0.00888100329728698 0.03875710433719026 -0.017028392029350976 -0.042376857265986646 -0.046844680861401464 0.010595881468065418 0.010039641763910596 -36.66368656749116 0.013578079543096472 -0.043059450283821035 -0.03021764897430235 0.013686226610840705 0.04057173851094432 -0.006998990098581226 0.007745019926423488 0.022332676911978905 -19.736803654159832 -0.013671140439880712 0.022700558426800608 0.03665120090180663 -0.02729774476560288 -0.011993346531224717 0.025316035587807557 0.005669720252379781 -0.00890166563644067 24.052492102855386 -0.030400284511754787 -0.04806240520239174 28.844816017651155 0.015237515138462965 0.013388952270143693 28.90329932899522 -0.004267359710949757 0.04327932274630687 5.52965549985399 1.479180607575959 12.503828608890077 -70.32988389662802 21.703714119554487 -27.90422828865906 -24.606172673074962 5.284028512133002 -96.40013719638712 -26.142673148193065 4.635526078628175 -4.26125856251263 -0.48789483730169664 0.06641458529187978 -8.134488849485566 -0.03537984731541892 -0.03177249059780859 44.59440621333136 -0.045581762212926334 0.03747422002636238 44.55784917189934 12.448833810786118 0.03019768521905704 -0.01177767941647256 -0.031597968528366216 0.008233617571948442 0.010115865835614279 0.008950794147079498 -0.03933379191507235 -0.0294668030715474 11.101027713544864 0.0452490147795386 0.012293581459004508 0.022726879808853444 -0.02831544746898089 -0.015403757819369125 -0.008153281740756413 -0.005347000709678377 -0.028853876141961866 4.811082100715212 0.006114882861580371 -0.004708237824875519 -0.024405290929908695 -0.023403958818226843 -0.015693065083922413 0.009134933313989351 0.042118930999126204 -0.049164395435949956 -5.55194658321597 0.019757514894319324 -0.026985829003349667 -6.686461356578982 -0.006003838783297314 0.015069148448746263 -6.749828103738744 -0.01803647602240644 -0.01033814117108995 0.012469954665079924 0.03800503703037894 0.030772523955944493 8.062945378326877 3.4881622583308745 -19.21406156992934 -0.03434657307984686 10.392783088428857 -0.03215480763723366 -5.63152951207425 -15.685719559552698 3.2117862442697045 0.008678010192709107 0.015482144893930376 -0.03924885418537961 -0.028549825479438913 4.652804942418317 -0.028197004301472987 12.49397719853786 -8.273235919871313 6.85610350452789 -0.03394423829528791 46.419330348220704 0.025302488682573343 -4.356060081268891 -14.742173887941375 -3.813393949052169 -0.015211948945051755 -0.04112073666023193 -0.01781231202560226 -0.012080167245758451 -10.78079715716672 -0.04466458581836769 
